<?xml version="1.0" ?><svg height="19.998047" id="svg8" version="1.1" viewBox="0 0 4.232299 5.2911501" width="15.996091" xmlns="http://www.w3.org/2000/svg" xmlns:cc="http://creativecommons.org/ns#" xmlns:dc="http://purl.org/dc/elements/1.1/" xmlns:rdf="http://www.w3.org/1999/02/22-rdf-syntax-ns#" xmlns:svg="http://www.w3.org/2000/svg"><defs id="defs2"/><g id="layer4" transform="translate(-35.455202,-0.52916668)"><g id="FLAT-3"><path d="m 36.218977,0.52916668 c -0.419131,0 -0.763775,0.34464372 -0.763775,0.76377772 V 5.056539 c 0,0.4191339 0.344644,0.7637777 0.763775,0.7637777 h 2.704746 c 0.419134,0 0.763778,-0.3446438 0.763778,-0.7637777 V 1.2929444 c 0,-0.419134 -0.344644,-0.76377772 -0.763778,-0.76377772 z" id="path1212" style="color:#000000;font-style:normal;font-variant:normal;font-weight:normal;font-stretch:normal;font-size:medium;line-height:normal;font-family:sans-serif;font-variant-ligatures:normal;font-variant-position:normal;font-variant-caps:normal;font-variant-numeric:normal;font-variant-alternates:normal;font-variant-east-asian:normal;font-feature-settings:normal;font-variation-settings:normal;text-indent:0;text-align:start;text-decoration:none;text-decoration-line:none;text-decoration-style:solid;text-decoration-color:#000000;letter-spacing:normal;word-spacing:normal;text-transform:none;writing-mode:lr-tb;direction:ltr;text-orientation:mixed;dominant-baseline:auto;baseline-shift:baseline;text-anchor:start;white-space:normal;shape-padding:0;shape-margin:0;inline-size:0;clip-rule:nonzero;display:inline;overflow:visible;visibility:visible;isolation:auto;mix-blend-mode:normal;color-interpolation:sRGB;color-interpolation-filters:linearRGB;solid-color:#000000;solid-opacity:1;vector-effect:none;fill:#82bbfb;fill-opacity:1;fill-rule:nonzero;stroke:none;stroke-width:0.529167;stroke-linecap:round;stroke-linejoin:round;stroke-miterlimit:4;stroke-dasharray:none;stroke-dashoffset:0;stroke-opacity:1;paint-order:markers fill stroke;color-rendering:auto;image-rendering:auto;shape-rendering:auto;text-rendering:auto;enable-background:accumulate;stop-color:#000000"/><path d="m 150,16.048828 a 17.202391,32.202391 69.881832 0 1 -2.08203,0.806641 17.202391,32.202391 69.881832 0 1 -13.73828,3.208984 c 0.39857,1.11894 1.46202,1.933594 2.71093,1.933594 h 10.22266 c 1.58413,0 2.88672,-1.302591 2.88672,-2.886719 z" id="path1329" style="color:#000000;font-style:normal;font-variant:normal;font-weight:normal;font-stretch:normal;font-size:medium;line-height:normal;font-family:sans-serif;font-variant-ligatures:normal;font-variant-position:normal;font-variant-caps:normal;font-variant-numeric:normal;font-variant-alternates:normal;font-variant-east-asian:normal;font-feature-settings:normal;font-variation-settings:normal;text-indent:0;text-align:start;text-decoration:none;text-decoration-line:none;text-decoration-style:solid;text-decoration-color:#000000;letter-spacing:normal;word-spacing:normal;text-transform:none;writing-mode:lr-tb;direction:ltr;text-orientation:mixed;dominant-baseline:auto;baseline-shift:baseline;text-anchor:start;white-space:normal;shape-padding:0;shape-margin:0;inline-size:0;clip-rule:nonzero;display:inline;overflow:visible;visibility:visible;isolation:auto;mix-blend-mode:normal;color-interpolation:sRGB;color-interpolation-filters:linearRGB;solid-color:#000000;solid-opacity:1;vector-effect:none;fill:#65a3fc;fill-opacity:1;fill-rule:nonzero;stroke:none;stroke-width:2;stroke-linecap:round;stroke-linejoin:round;stroke-miterlimit:4;stroke-dasharray:none;stroke-dashoffset:0;stroke-opacity:1;paint-order:markers fill stroke;color-rendering:auto;image-rendering:auto;shape-rendering:auto;text-rendering:auto;enable-background:accumulate;stop-color:#000000" transform="scale(0.26458334)"/><path d="m 37.296948,1.3223999 a 0.2645835,0.2645835 0 0 0 -0.177765,0.078032 L 36.7776,1.7420126 36.699053,1.6639812 a 0.2645835,0.2645835 0 0 0 -0.373105,0 0.2645835,0.2645835 0 0 0 0,0.3751709 l 0.264068,0.2656168 a 0.26460996,0.26460996 0 0 0 0.374653,0 l 0.529685,-0.5291666 a 0.2645835,0.2645835 0 0 0 0,-0.3751709 0.2645835,0.2645835 0 0 0 -0.197406,-0.078032 z m 0.802537,0.2656169 a 0.2645835,0.2645835 0 0 0 -0.263551,0.2635498 0.2645835,0.2645835 0 0 0 0.263551,0.2656169 h 0.529167 A 0.2645835,0.2645835 0 0 0 38.894786,1.8515666 0.2645835,0.2645835 0 0 0 38.628652,1.5880168 Z m -0.802537,1.0583333 a 0.2645835,0.2645835 0 0 0 -0.177765,0.076481 L 36.7776,3.0644121 36.69905,2.9884481 a 0.2645835,0.2645835 0 0 0 -0.373105,0 0.2645835,0.2645835 0 0 0 0,0.3731038 l 0.264068,0.2656168 a 0.26460996,0.26460996 0 0 0 0.374653,0 l 0.529685,-0.5296834 a 0.2645835,0.2645835 0 0 0 0,-0.374654 0.2645835,0.2645835 0 0 0 -0.197406,-0.076481 z M 38.099485,2.9099 a 0.2645835,0.2645835 0 0 0 -0.263551,0.2661335 0.2645835,0.2645835 0 0 0 0.263551,0.2635499 h 0.529167 A 0.2645835,0.2645835 0 0 0 38.894786,3.1760335 0.2645835,0.2645835 0 0 0 38.628652,2.9099 Z m -1.588019,1.3224 a 0.2645835,0.2645835 0 0 0 -0.263548,0.2656168 0.2645835,0.2645835 0 0 0 0.263548,0.2635499 h 2.117186 A 0.2645835,0.2645835 0 0 0 38.894786,4.4979168 0.2645835,0.2645835 0 0 0 38.628652,4.2323 Z" id="path1229" style="color:#000000;font-style:normal;font-variant:normal;font-weight:normal;font-stretch:normal;font-size:medium;line-height:normal;font-family:sans-serif;font-variant-ligatures:normal;font-variant-position:normal;font-variant-caps:normal;font-variant-numeric:normal;font-variant-alternates:normal;font-variant-east-asian:normal;font-feature-settings:normal;font-variation-settings:normal;text-indent:0;text-align:start;text-decoration:none;text-decoration-line:none;text-decoration-style:solid;text-decoration-color:#000000;letter-spacing:normal;word-spacing:normal;text-transform:none;writing-mode:lr-tb;direction:ltr;text-orientation:mixed;dominant-baseline:auto;baseline-shift:baseline;text-anchor:start;white-space:normal;shape-padding:0;shape-margin:0;inline-size:0;clip-rule:nonzero;display:inline;overflow:visible;visibility:visible;isolation:auto;mix-blend-mode:normal;color-interpolation:sRGB;color-interpolation-filters:linearRGB;solid-color:#000000;solid-opacity:1;vector-effect:none;fill:#007ff9;fill-opacity:1;fill-rule:nonzero;stroke:none;stroke-width:0.529167;stroke-linecap:round;stroke-linejoin:round;stroke-miterlimit:4;stroke-dasharray:none;stroke-dashoffset:0;stroke-opacity:1;color-rendering:auto;image-rendering:auto;shape-rendering:auto;text-rendering:auto;enable-background:accumulate;stop-color:#000000"/><path d="m 146.98438,17.189453 a 17.202391,32.202391 69.881832 0 1 -2.4961,0.806641 h 1.50977 a 1.0000006,1.0000006 0 0 0 0.98633,-0.806641 z" id="path1334" style="color:#000000;font-style:normal;font-variant:normal;font-weight:normal;font-stretch:normal;font-size:medium;line-height:normal;font-family:sans-serif;font-variant-ligatures:normal;font-variant-position:normal;font-variant-caps:normal;font-variant-numeric:normal;font-variant-alternates:normal;font-variant-east-asian:normal;font-feature-settings:normal;font-variation-settings:normal;text-indent:0;text-align:start;text-decoration:none;text-decoration-line:none;text-decoration-style:solid;text-decoration-color:#000000;letter-spacing:normal;word-spacing:normal;text-transform:none;writing-mode:lr-tb;direction:ltr;text-orientation:mixed;dominant-baseline:auto;baseline-shift:baseline;text-anchor:start;white-space:normal;shape-padding:0;shape-margin:0;inline-size:0;clip-rule:nonzero;display:inline;overflow:visible;visibility:visible;isolation:auto;mix-blend-mode:normal;color-interpolation:sRGB;color-interpolation-filters:linearRGB;solid-color:#000000;solid-opacity:1;vector-effect:none;fill:#006ef9;fill-opacity:1;fill-rule:nonzero;stroke:none;stroke-width:2;stroke-linecap:round;stroke-linejoin:round;stroke-miterlimit:4;stroke-dasharray:none;stroke-dashoffset:0;stroke-opacity:1;color-rendering:auto;image-rendering:auto;shape-rendering:auto;text-rendering:auto;enable-background:accumulate;stop-color:#000000" transform="scale(0.26458334)"/></g></g></svg>